<svg width="1200" height="1600" viewBox="0 0 1200 1600" fill="none" xmlns="http://www.w3.org/2000/svg">
  <rect width="1200" height="1600" rx="48" fill="#FFFDF8"/>
  <rect x="70" y="80" width="1060" height="1440" rx="36" fill="#FBF4EA" stroke="#E5D8C7" stroke-width="3"/>
  <path d="M180 220C274 190 330 184 430 200C531 216 598 250 700 244C789 238 861 198 968 214" stroke="#6A4D35" stroke-width="10" stroke-linecap="round"/>
  <path d="M150 320C262 300 349 310 462 326C575 342 673 355 805 340C900 330 956 302 1024 304" stroke="#7C5B42" stroke-width="9" stroke-linecap="round"/>
  <path d="M154 410C262 398 345 410 463 427C580 444 672 456 790 440C888 426 956 404 1022 410" stroke="#6E513A" stroke-width="9" stroke-linecap="round"/>
  <path d="M162 520C250 505 340 512 462 534C585 556 674 562 784 548C881 536 954 522 1018 528" stroke="#7B573C" stroke-width="9" stroke-linecap="round"/>
  <path d="M164 630C274 616 349 622 474 648C602 674 694 684 810 668C907 654 958 642 1018 646" stroke="#6A4D35" stroke-width="9" stroke-linecap="round"/>
  <path d="M156 744C264 730 354 734 486 758C618 782 697 790 820 776C905 766 968 758 1028 764" stroke="#7C5B42" stroke-width="9" stroke-linecap="round"/>
  <path d="M166 854C280 844 367 852 487 876C608 900 702 910 834 890C924 878 970 866 1038 870" stroke="#6A4D35" stroke-width="9" stroke-linecap="round"/>
  <path d="M162 968C270 960 356 968 482 994C609 1020 701 1024 816 1008C918 994 972 988 1038 994" stroke="#7B573C" stroke-width="9" stroke-linecap="round"/>
  <path d="M166 1078C258 1068 352 1076 486 1104C620 1132 712 1132 832 1116C930 1102 982 1096 1040 1100" stroke="#6E513A" stroke-width="9" stroke-linecap="round"/>
</svg>
