<svg width="1200" height="1600" viewBox="0 0 1200 1600" fill="none" xmlns="http://www.w3.org/2000/svg">
  <rect width="1200" height="1600" rx="48" fill="#FFFCF6"/>
  <rect x="70" y="80" width="1060" height="1440" rx="36" fill="#F7EFE4" stroke="#E2D4C1" stroke-width="3"/>
  <path d="M160 226C280 208 366 214 492 240C620 266 698 274 816 258C914 246 978 238 1036 242" stroke="#624838" stroke-width="9" stroke-linecap="round"/>
  <path d="M162 342C270 332 358 340 490 364C624 388 710 392 824 380C920 370 984 364 1044 368" stroke="#71513D" stroke-width="9" stroke-linecap="round"/>
  <path d="M168 454C282 444 364 454 492 480C620 506 712 510 834 494C926 482 982 478 1046 482" stroke="#604334" stroke-width="9" stroke-linecap="round"/>
  <path d="M176 566C292 556 382 566 510 592C638 618 736 622 854 608C946 596 994 590 1058 594" stroke="#6C4D39" stroke-width="9" stroke-linecap="round"/>
  <path d="M186 678C288 672 370 688 504 718C638 748 728 756 852 742C950 730 1002 724 1062 730" stroke="#624838" stroke-width="9" stroke-linecap="round"/>
  <path d="M0 510C180 430 356 410 548 450C736 490 916 514 1200 432V1036C1066 1018 920 1068 742 1092C546 1118 360 1112 0 1022V510Z" fill="url(#shadow)"/>
  <defs>
    <linearGradient id="shadow" x1="142" y1="450" x2="1120" y2="1066" gradientUnits="userSpaceOnUse">
      <stop stop-color="#8E6C52" stop-opacity="0.2"/>
      <stop offset="1" stop-color="#8E6C52" stop-opacity="0.04"/>
    </linearGradient>
  </defs>
</svg>
